<mxfile host="Electron" agent="Mozilla/5.0 (Windows NT 10.0; Win64; x64) AppleWebKit/537.36 (KHTML, like Gecko) draw.io/24.7.17 Chrome/128.0.6613.36 Electron/32.0.1 Safari/537.36" version="24.7.17">
  <diagram name="Page-1" id="2YBvvXClWsGukQMizWep">
    <mxGraphModel dx="794" dy="607" grid="1" gridSize="10" guides="1" tooltips="1" connect="1" arrows="1" fold="1" page="1" pageScale="1" pageWidth="1100" pageHeight="1200" math="0" shadow="0">
      <root>
        <mxCell id="0" />
        <mxCell id="1" parent="0" />
        <mxCell id="aM9ryv3xv72pqoxQDRHE-1" value=":Wiagi" style="shape=umlLifeline;perimeter=lifelinePerimeter;whiteSpace=wrap;html=1;container=0;dropTarget=0;collapsible=0;recursiveResize=0;outlineConnect=0;portConstraint=eastwest;newEdgeStyle={&quot;edgeStyle&quot;:&quot;elbowEdgeStyle&quot;,&quot;elbow&quot;:&quot;vertical&quot;,&quot;curved&quot;:0,&quot;rounded&quot;:0};rounded=1;" parent="1" vertex="1">
          <mxGeometry x="40" y="40" width="100" height="1150" as="geometry" />
        </mxCell>
        <mxCell id="aM9ryv3xv72pqoxQDRHE-2" value="" style="html=1;points=[];perimeter=orthogonalPerimeter;outlineConnect=0;targetShapes=umlLifeline;portConstraint=eastwest;newEdgeStyle={&quot;edgeStyle&quot;:&quot;elbowEdgeStyle&quot;,&quot;elbow&quot;:&quot;vertical&quot;,&quot;curved&quot;:0,&quot;rounded&quot;:0};" parent="aM9ryv3xv72pqoxQDRHE-1" vertex="1">
          <mxGeometry x="45" y="70" width="10" height="1070" as="geometry" />
        </mxCell>
        <mxCell id="aM9ryv3xv72pqoxQDRHE-7" value="parse(...)" style="html=1;verticalAlign=bottom;endArrow=block;edgeStyle=elbowEdgeStyle;elbow=vertical;curved=0;rounded=0;" parent="1" target="1ialCVmugB1Czv88WBpj-15" edge="1">
          <mxGeometry x="0.3462" relative="1" as="geometry">
            <mxPoint x="195" y="120" as="sourcePoint" />
            <Array as="points">
              <mxPoint x="95" y="120" />
            </Array>
            <mxPoint x="425" y="120" as="targetPoint" />
            <mxPoint as="offset" />
          </mxGeometry>
        </mxCell>
        <mxCell id="aM9ryv3xv72pqoxQDRHE-8" value="return&amp;nbsp;&lt;div&gt;listSpendingsCommand&lt;/div&gt;" style="html=1;verticalAlign=bottom;endArrow=block;dashed=1;edgeStyle=elbowEdgeStyle;elbow=vertical;curved=0;rounded=0;endFill=1;" parent="1" edge="1">
          <mxGeometry relative="1" as="geometry">
            <mxPoint x="95" y="360" as="targetPoint" />
            <Array as="points">
              <mxPoint x="195" y="360" />
            </Array>
            <mxPoint x="255" y="360" as="sourcePoint" />
          </mxGeometry>
        </mxCell>
        <mxCell id="1ialCVmugB1Czv88WBpj-14" value="&amp;lt;&amp;lt;class&amp;gt;&amp;gt;&lt;br&gt;:Parser" style="shape=umlLifeline;rounded=1;perimeter=lifelinePerimeter;whiteSpace=wrap;html=1;container=0;dropTarget=0;collapsible=0;recursiveResize=0;outlineConnect=0;portConstraint=eastwest;newEdgeStyle={&quot;edgeStyle&quot;:&quot;elbowEdgeStyle&quot;,&quot;elbow&quot;:&quot;vertical&quot;,&quot;curved&quot;:0,&quot;rounded&quot;:0};" parent="1" vertex="1">
          <mxGeometry x="210" y="40" width="100" height="1120" as="geometry" />
        </mxCell>
        <mxCell id="1ialCVmugB1Czv88WBpj-15" value="" style="html=1;points=[];perimeter=orthogonalPerimeter;outlineConnect=0;targetShapes=umlLifeline;portConstraint=eastwest;newEdgeStyle={&quot;edgeStyle&quot;:&quot;elbowEdgeStyle&quot;,&quot;elbow&quot;:&quot;vertical&quot;,&quot;curved&quot;:0,&quot;rounded&quot;:0};" parent="1ialCVmugB1Czv88WBpj-14" vertex="1">
          <mxGeometry x="45" y="80" width="10" height="240" as="geometry" />
        </mxCell>
        <mxCell id="VLh5bKRLz8x9KIW3gmQL-4" value="" style="html=1;verticalAlign=bottom;endArrow=block;edgeStyle=elbowEdgeStyle;elbow=vertical;curved=0;rounded=0;" parent="1" edge="1">
          <mxGeometry x="0.3462" relative="1" as="geometry">
            <mxPoint x="195" y="220" as="sourcePoint" />
            <Array as="points" />
            <mxPoint x="195" y="220" as="targetPoint" />
            <mxPoint as="offset" />
          </mxGeometry>
        </mxCell>
        <mxCell id="ckLyhrDvlLfpHV3zjBn--1" value="" style="html=1;points=[[0,0,0,0,5],[0,1,0,0,-5],[1,0,0,0,5],[1,1,0,0,-5]];perimeter=orthogonalPerimeter;outlineConnect=0;targetShapes=umlLifeline;portConstraint=eastwest;newEdgeStyle={&quot;curved&quot;:0,&quot;rounded&quot;:0};" parent="1" vertex="1">
          <mxGeometry x="260" y="150" width="10" height="126" as="geometry" />
        </mxCell>
        <mxCell id="ckLyhrDvlLfpHV3zjBn--2" value="parseListCommand(...)" style="html=1;align=left;spacingLeft=2;endArrow=block;rounded=0;edgeStyle=orthogonalEdgeStyle;curved=0;rounded=0;" parent="1" edge="1">
          <mxGeometry relative="1" as="geometry">
            <mxPoint x="265" y="130" as="sourcePoint" />
            <Array as="points">
              <mxPoint x="310" y="130" />
              <mxPoint x="310" y="150" />
            </Array>
            <mxPoint x="271" y="150" as="targetPoint" />
          </mxGeometry>
        </mxCell>
        <mxCell id="ckLyhrDvlLfpHV3zjBn--3" value="listSpendingsCommand" style="html=1;align=left;spacingLeft=2;endArrow=block;rounded=0;edgeStyle=orthogonalEdgeStyle;curved=0;rounded=0;dashed=1;" parent="1" edge="1">
          <mxGeometry relative="1" as="geometry">
            <mxPoint x="271" y="276" as="sourcePoint" />
            <Array as="points">
              <mxPoint x="310" y="276" />
              <mxPoint x="310" y="296" />
            </Array>
            <mxPoint x="265" y="296" as="targetPoint" />
          </mxGeometry>
        </mxCell>
        <mxCell id="ckLyhrDvlLfpHV3zjBn--4" value=":listSpendingsCommand" style="shape=umlLifeline;perimeter=lifelinePerimeter;whiteSpace=wrap;html=1;container=1;dropTarget=0;collapsible=0;recursiveResize=0;outlineConnect=0;portConstraint=eastwest;newEdgeStyle={&quot;curved&quot;:0,&quot;rounded&quot;:0};rounded=1;" parent="1" vertex="1">
          <mxGeometry x="390" y="160" width="140" height="1010" as="geometry" />
        </mxCell>
        <mxCell id="ckLyhrDvlLfpHV3zjBn--5" value="" style="html=1;points=[[0,0,0,0,5],[0,1,0,0,-5],[1,0,0,0,5],[1,1,0,0,-5]];perimeter=orthogonalPerimeter;outlineConnect=0;targetShapes=umlLifeline;portConstraint=eastwest;newEdgeStyle={&quot;curved&quot;:0,&quot;rounded&quot;:0};" parent="ckLyhrDvlLfpHV3zjBn--4" vertex="1">
          <mxGeometry x="65" y="40" width="10" height="60" as="geometry" />
        </mxCell>
        <mxCell id="ckLyhrDvlLfpHV3zjBn--13" value="" style="html=1;points=[[0,0,0,0,5],[0,1,0,0,-5],[1,0,0,0,5],[1,1,0,0,-5]];perimeter=orthogonalPerimeter;outlineConnect=0;targetShapes=umlLifeline;portConstraint=eastwest;newEdgeStyle={&quot;curved&quot;:0,&quot;rounded&quot;:0};" parent="ckLyhrDvlLfpHV3zjBn--4" vertex="1">
          <mxGeometry x="65" y="270" width="10" height="720" as="geometry" />
        </mxCell>
        <mxCell id="ckLyhrDvlLfpHV3zjBn--8" value="" style="html=1;verticalAlign=bottom;endArrow=block;curved=0;rounded=0;" parent="1" edge="1">
          <mxGeometry width="80" relative="1" as="geometry">
            <mxPoint x="270" y="181" as="sourcePoint" />
            <mxPoint x="389" y="181" as="targetPoint" />
          </mxGeometry>
        </mxCell>
        <mxCell id="ckLyhrDvlLfpHV3zjBn--9" value="" style="html=1;verticalAlign=bottom;endArrow=block;curved=0;rounded=0;dashed=1;" parent="1" edge="1">
          <mxGeometry width="80" relative="1" as="geometry">
            <mxPoint x="455" y="260" as="sourcePoint" />
            <mxPoint x="270" y="260" as="targetPoint" />
          </mxGeometry>
        </mxCell>
        <mxCell id="ckLyhrDvlLfpHV3zjBn--10" value="Return new&amp;nbsp;&lt;div&gt;listSpendingsCommand&lt;/div&gt;" style="edgeLabel;html=1;align=center;verticalAlign=middle;resizable=0;points=[];" parent="ckLyhrDvlLfpHV3zjBn--9" vertex="1" connectable="0">
          <mxGeometry x="0.5166" y="-2" relative="1" as="geometry">
            <mxPoint x="45" y="-14" as="offset" />
          </mxGeometry>
        </mxCell>
        <mxCell id="ckLyhrDvlLfpHV3zjBn--12" value="execute(...)" style="html=1;verticalAlign=bottom;endArrow=block;curved=0;rounded=0;" parent="1" source="aM9ryv3xv72pqoxQDRHE-2" target="ckLyhrDvlLfpHV3zjBn--13" edge="1">
          <mxGeometry x="-0.808" width="80" relative="1" as="geometry">
            <mxPoint x="100" y="410" as="sourcePoint" />
            <mxPoint x="440" y="430" as="targetPoint" />
            <mxPoint as="offset" />
          </mxGeometry>
        </mxCell>
        <mxCell id="ckLyhrDvlLfpHV3zjBn--14" value="" style="html=1;points=[[0,0,0,0,5],[0,1,0,0,-5],[1,0,0,0,5],[1,1,0,0,-5]];perimeter=orthogonalPerimeter;outlineConnect=0;targetShapes=umlLifeline;portConstraint=eastwest;newEdgeStyle={&quot;curved&quot;:0,&quot;rounded&quot;:0};" parent="1" vertex="1">
          <mxGeometry x="460" y="469" width="10" height="651" as="geometry" />
        </mxCell>
        <mxCell id="ckLyhrDvlLfpHV3zjBn--15" value="handleComand(...)" style="html=1;align=left;spacingLeft=2;endArrow=block;rounded=0;edgeStyle=orthogonalEdgeStyle;curved=0;rounded=0;" parent="1" source="ckLyhrDvlLfpHV3zjBn--13" target="ckLyhrDvlLfpHV3zjBn--14" edge="1">
          <mxGeometry relative="1" as="geometry">
            <mxPoint x="470" y="448.98" as="sourcePoint" />
            <Array as="points">
              <mxPoint x="500" y="449" />
              <mxPoint x="500" y="469" />
            </Array>
            <mxPoint x="476" y="468.98" as="targetPoint" />
          </mxGeometry>
        </mxCell>
        <mxCell id="ckLyhrDvlLfpHV3zjBn--16" value="" style="html=1;align=left;spacingLeft=2;endArrow=block;rounded=0;edgeStyle=orthogonalEdgeStyle;curved=0;rounded=0;dashed=1;" parent="1" edge="1">
          <mxGeometry relative="1" as="geometry">
            <mxPoint x="470" y="1120" as="sourcePoint" />
            <Array as="points">
              <mxPoint x="500" y="1120" />
              <mxPoint x="500" y="1130" />
            </Array>
            <mxPoint x="465" y="1130" as="targetPoint" />
          </mxGeometry>
        </mxCell>
        <mxCell id="ckLyhrDvlLfpHV3zjBn--17" value="Verify user input" style="text;html=1;align=center;verticalAlign=middle;resizable=0;points=[];autosize=1;strokeColor=none;fillColor=none;" parent="1" vertex="1">
          <mxGeometry x="470" y="479" width="110" height="30" as="geometry" />
        </mxCell>
        <mxCell id="ckLyhrDvlLfpHV3zjBn--18" value=":Ui" style="shape=umlLifeline;rounded=1;perimeter=lifelinePerimeter;whiteSpace=wrap;html=1;container=0;dropTarget=0;collapsible=0;recursiveResize=0;outlineConnect=0;portConstraint=eastwest;newEdgeStyle={&quot;edgeStyle&quot;:&quot;elbowEdgeStyle&quot;,&quot;elbow&quot;:&quot;vertical&quot;,&quot;curved&quot;:0,&quot;rounded&quot;:0};" parent="1" vertex="1">
          <mxGeometry x="740" y="40" width="100" height="1120" as="geometry" />
        </mxCell>
        <mxCell id="ckLyhrDvlLfpHV3zjBn--19" value="" style="html=1;points=[[0,0,0,0,5],[0,1,0,0,-5],[1,0,0,0,5],[1,1,0,0,-5]];perimeter=orthogonalPerimeter;outlineConnect=0;targetShapes=umlLifeline;portConstraint=eastwest;newEdgeStyle={&quot;curved&quot;:0,&quot;rounded&quot;:0};" parent="ckLyhrDvlLfpHV3zjBn--18" vertex="1">
          <mxGeometry x="45" y="479" width="10" height="421" as="geometry" />
        </mxCell>
        <mxCell id="ckLyhrDvlLfpHV3zjBn--71" value="" style="html=1;points=[[0,0,0,0,5],[0,1,0,0,-5],[1,0,0,0,5],[1,1,0,0,-5]];perimeter=orthogonalPerimeter;outlineConnect=0;targetShapes=umlLifeline;portConstraint=eastwest;newEdgeStyle={&quot;curved&quot;:0,&quot;rounded&quot;:0};" parent="ckLyhrDvlLfpHV3zjBn--18" vertex="1">
          <mxGeometry x="45" y="980" width="10" height="60" as="geometry" />
        </mxCell>
        <mxCell id="ckLyhrDvlLfpHV3zjBn--20" value="printListOfTimeRange(spendings:spendingLIst)" style="html=1;verticalAlign=bottom;endArrow=block;curved=0;rounded=0;" parent="1" target="ckLyhrDvlLfpHV3zjBn--19" edge="1">
          <mxGeometry width="80" relative="1" as="geometry">
            <mxPoint x="470" y="520" as="sourcePoint" />
            <mxPoint x="550" y="520" as="targetPoint" />
          </mxGeometry>
        </mxCell>
        <mxCell id="ckLyhrDvlLfpHV3zjBn--28" value="" style="group;fillColor=none;strokeColor=default;" parent="1" vertex="1" connectable="0">
          <mxGeometry x="690" y="530" width="380" height="420" as="geometry" />
        </mxCell>
        <mxCell id="ckLyhrDvlLfpHV3zjBn--23" value="alt" style="shape=umlFrame;whiteSpace=wrap;html=1;pointerEvents=0;" parent="ckLyhrDvlLfpHV3zjBn--28" vertex="1">
          <mxGeometry width="380" height="420" as="geometry" />
        </mxCell>
        <mxCell id="ckLyhrDvlLfpHV3zjBn--25" value="" style="line;strokeWidth=1;fillColor=none;align=left;verticalAlign=middle;spacingTop=-1;spacingLeft=3;spacingRight=3;rotatable=0;labelPosition=right;points=[];portConstraint=eastwest;strokeColor=inherit;" parent="ckLyhrDvlLfpHV3zjBn--28" vertex="1">
          <mxGeometry y="105" width="380" height="13.601538461538462" as="geometry" />
        </mxCell>
        <mxCell id="ckLyhrDvlLfpHV3zjBn--24" value="[user chooses to list weekly spendings]" style="text;html=1;align=center;verticalAlign=middle;resizable=0;points=[];autosize=1;strokeColor=none;fillColor=none;" parent="ckLyhrDvlLfpHV3zjBn--28" vertex="1">
          <mxGeometry x="100" width="230" height="30" as="geometry" />
        </mxCell>
        <mxCell id="ckLyhrDvlLfpHV3zjBn--29" value="" style="html=1;points=[[0,0,0,0,5],[0,1,0,0,-5],[1,0,0,0,5],[1,1,0,0,-5]];perimeter=orthogonalPerimeter;outlineConnect=0;targetShapes=umlLifeline;portConstraint=eastwest;newEdgeStyle={&quot;curved&quot;:0,&quot;rounded&quot;:0};" parent="ckLyhrDvlLfpHV3zjBn--28" vertex="1">
          <mxGeometry x="100" y="36.08" width="10" height="53.92" as="geometry" />
        </mxCell>
        <mxCell id="ckLyhrDvlLfpHV3zjBn--30" value="printWeekly()" style="html=1;align=left;spacingLeft=2;endArrow=block;rounded=0;edgeStyle=orthogonalEdgeStyle;curved=0;rounded=0;" parent="ckLyhrDvlLfpHV3zjBn--28" edge="1">
          <mxGeometry relative="1" as="geometry">
            <mxPoint x="105" y="25.307692307692307" as="sourcePoint" />
            <Array as="points">
              <mxPoint x="135" y="25.307692307692307" />
              <mxPoint x="135" y="36.07692307692307" />
            </Array>
            <mxPoint x="110" y="36" as="targetPoint" />
          </mxGeometry>
        </mxCell>
        <mxCell id="ckLyhrDvlLfpHV3zjBn--31" value="" style="html=1;align=left;spacingLeft=2;endArrow=block;rounded=0;edgeStyle=orthogonalEdgeStyle;curved=0;rounded=0;dashed=1;" parent="ckLyhrDvlLfpHV3zjBn--28" edge="1">
          <mxGeometry x="-0.0024" relative="1" as="geometry">
            <mxPoint x="110" y="90.38461538461539" as="sourcePoint" />
            <Array as="points">
              <mxPoint x="140" y="90.38461538461539" />
              <mxPoint x="140" y="101.15384615384615" />
            </Array>
            <mxPoint x="104.99999999999977" y="101.1052631578948" as="targetPoint" />
            <mxPoint as="offset" />
          </mxGeometry>
        </mxCell>
        <mxCell id="ckLyhrDvlLfpHV3zjBn--32" value="[user chooses to list biweekly spendings]" style="text;html=1;align=center;verticalAlign=middle;resizable=0;points=[];autosize=1;strokeColor=none;fillColor=none;" parent="ckLyhrDvlLfpHV3zjBn--28" vertex="1">
          <mxGeometry x="95" y="107.6923076923077" width="240" height="30" as="geometry" />
        </mxCell>
        <mxCell id="ckLyhrDvlLfpHV3zjBn--36" value="printBiweekly()" style="html=1;align=left;spacingLeft=2;endArrow=block;rounded=0;edgeStyle=orthogonalEdgeStyle;curved=0;rounded=0;" parent="ckLyhrDvlLfpHV3zjBn--28" target="ckLyhrDvlLfpHV3zjBn--37" edge="1">
          <mxGeometry relative="1" as="geometry">
            <mxPoint x="105" y="140" as="sourcePoint" />
            <Array as="points">
              <mxPoint x="135" y="140" />
              <mxPoint x="135" y="150.76923076923077" />
            </Array>
          </mxGeometry>
        </mxCell>
        <mxCell id="ckLyhrDvlLfpHV3zjBn--37" value="" style="html=1;points=[[0,0,0,0,5],[0,1,0,0,-5],[1,0,0,0,5],[1,1,0,0,-5]];perimeter=orthogonalPerimeter;outlineConnect=0;targetShapes=umlLifeline;portConstraint=eastwest;newEdgeStyle={&quot;curved&quot;:0,&quot;rounded&quot;:0};" parent="ckLyhrDvlLfpHV3zjBn--28" vertex="1">
          <mxGeometry x="100" y="150.76923076923077" width="10" height="32.30769230769231" as="geometry" />
        </mxCell>
        <mxCell id="ckLyhrDvlLfpHV3zjBn--38" value="" style="html=1;align=left;spacingLeft=2;endArrow=block;rounded=0;edgeStyle=orthogonalEdgeStyle;curved=0;rounded=0;dashed=1;" parent="ckLyhrDvlLfpHV3zjBn--28" edge="1">
          <mxGeometry x="-0.0024" relative="1" as="geometry">
            <mxPoint x="110" y="183.07692307692307" as="sourcePoint" />
            <Array as="points">
              <mxPoint x="140" y="183.07692307692307" />
              <mxPoint x="140" y="193.84615384615384" />
            </Array>
            <mxPoint x="105" y="193.84615384615384" as="targetPoint" />
            <mxPoint as="offset" />
          </mxGeometry>
        </mxCell>
        <mxCell id="ckLyhrDvlLfpHV3zjBn--21" value="isListAllSpendings:boolean" style="html=1;verticalAlign=bottom;endArrow=block;curved=0;rounded=0;dashed=1;" parent="ckLyhrDvlLfpHV3zjBn--28" edge="1">
          <mxGeometry x="0.4286" width="80" relative="1" as="geometry">
            <mxPoint x="95" y="107.84615384615384" as="sourcePoint" />
            <mxPoint x="-220" y="107.84615384615384" as="targetPoint" />
            <mxPoint as="offset" />
          </mxGeometry>
        </mxCell>
        <mxCell id="ckLyhrDvlLfpHV3zjBn--41" value="" style="line;strokeWidth=1;fillColor=none;align=left;verticalAlign=middle;spacingTop=-1;spacingLeft=3;spacingRight=3;rotatable=0;labelPosition=right;points=[];portConstraint=eastwest;strokeColor=inherit;" parent="ckLyhrDvlLfpHV3zjBn--28" vertex="1">
          <mxGeometry y="226.15384615384613" width="380" height="13.601538461538462" as="geometry" />
        </mxCell>
        <mxCell id="ckLyhrDvlLfpHV3zjBn--42" value="[user chooses to list monthly spendings]" style="text;html=1;align=center;verticalAlign=middle;resizable=0;points=[];autosize=1;strokeColor=none;fillColor=none;" parent="ckLyhrDvlLfpHV3zjBn--28" vertex="1">
          <mxGeometry x="95" y="239.7553846153846" width="240" height="30" as="geometry" />
        </mxCell>
        <mxCell id="ckLyhrDvlLfpHV3zjBn--43" value="printMonthlySpendings()" style="html=1;align=left;spacingLeft=2;endArrow=block;rounded=0;edgeStyle=orthogonalEdgeStyle;curved=0;rounded=0;" parent="ckLyhrDvlLfpHV3zjBn--28" target="ckLyhrDvlLfpHV3zjBn--44" edge="1">
          <mxGeometry relative="1" as="geometry">
            <mxPoint x="105" y="272.0630769230769" as="sourcePoint" />
            <Array as="points">
              <mxPoint x="135" y="272.0630769230769" />
              <mxPoint x="135" y="282.83230769230767" />
            </Array>
          </mxGeometry>
        </mxCell>
        <mxCell id="ckLyhrDvlLfpHV3zjBn--44" value="" style="html=1;points=[[0,0,0,0,5],[0,1,0,0,-5],[1,0,0,0,5],[1,1,0,0,-5]];perimeter=orthogonalPerimeter;outlineConnect=0;targetShapes=umlLifeline;portConstraint=eastwest;newEdgeStyle={&quot;curved&quot;:0,&quot;rounded&quot;:0};" parent="ckLyhrDvlLfpHV3zjBn--28" vertex="1">
          <mxGeometry x="100" y="282.83230769230767" width="10" height="32.30769230769231" as="geometry" />
        </mxCell>
        <mxCell id="ckLyhrDvlLfpHV3zjBn--45" value="" style="html=1;align=left;spacingLeft=2;endArrow=block;rounded=0;edgeStyle=orthogonalEdgeStyle;curved=0;rounded=0;dashed=1;" parent="ckLyhrDvlLfpHV3zjBn--28" edge="1">
          <mxGeometry x="-0.0024" relative="1" as="geometry">
            <mxPoint x="110" y="315.14" as="sourcePoint" />
            <Array as="points">
              <mxPoint x="140" y="315.14" />
              <mxPoint x="140" y="325.90923076923076" />
            </Array>
            <mxPoint x="105" y="325.90923076923076" as="targetPoint" />
            <mxPoint as="offset" />
          </mxGeometry>
        </mxCell>
        <mxCell id="ckLyhrDvlLfpHV3zjBn--46" value="isListAllSpendings:boolean" style="html=1;verticalAlign=bottom;endArrow=block;curved=0;rounded=0;dashed=1;" parent="ckLyhrDvlLfpHV3zjBn--28" edge="1">
          <mxGeometry x="0.4286" width="80" relative="1" as="geometry">
            <mxPoint x="95" y="338.83230769230767" as="sourcePoint" />
            <mxPoint x="-220" y="338.83230769230767" as="targetPoint" />
            <mxPoint as="offset" />
          </mxGeometry>
        </mxCell>
        <mxCell id="ckLyhrDvlLfpHV3zjBn--47" value="" style="line;strokeWidth=1;fillColor=none;align=left;verticalAlign=middle;spacingTop=-1;spacingLeft=3;spacingRight=3;rotatable=0;labelPosition=right;points=[];portConstraint=eastwest;strokeColor=inherit;" parent="ckLyhrDvlLfpHV3zjBn--28" vertex="1">
          <mxGeometry y="344.6153846153846" width="380" height="13.601538461538462" as="geometry" />
        </mxCell>
        <mxCell id="ckLyhrDvlLfpHV3zjBn--48" value="[else]" style="text;html=1;align=center;verticalAlign=middle;resizable=0;points=[];autosize=1;strokeColor=none;fillColor=none;" parent="ckLyhrDvlLfpHV3zjBn--28" vertex="1">
          <mxGeometry x="-1" y="350" width="50" height="30" as="geometry" />
        </mxCell>
        <mxCell id="ckLyhrDvlLfpHV3zjBn--70" value="isListAllSpendings:boolean" style="html=1;verticalAlign=bottom;endArrow=block;curved=0;rounded=0;dashed=1;" parent="ckLyhrDvlLfpHV3zjBn--28" edge="1">
          <mxGeometry x="0.4286" width="80" relative="1" as="geometry">
            <mxPoint x="95" y="400" as="sourcePoint" />
            <mxPoint x="-220" y="400" as="targetPoint" />
            <mxPoint as="offset" />
          </mxGeometry>
        </mxCell>
        <mxCell id="ckLyhrDvlLfpHV3zjBn--81" value="&lt;font style=&quot;font-size: 11px;&quot;&gt;ref&lt;/font&gt;" style="shape=umlFrame;whiteSpace=wrap;html=1;pointerEvents=0;width=30;height=22;swimlaneFillColor=default;" parent="ckLyhrDvlLfpHV3zjBn--28" vertex="1">
          <mxGeometry x="50" y="46.89" width="150" height="32.31" as="geometry" />
        </mxCell>
        <mxCell id="ckLyhrDvlLfpHV3zjBn--39" value="isListAllSpendings:boolean" style="html=1;verticalAlign=bottom;endArrow=block;curved=0;rounded=0;dashed=1;" parent="1" edge="1">
          <mxGeometry x="0.4286" width="80" relative="1" as="geometry">
            <mxPoint x="785" y="722" as="sourcePoint" />
            <mxPoint x="470" y="722" as="targetPoint" />
            <mxPoint as="offset" />
          </mxGeometry>
        </mxCell>
        <mxCell id="ckLyhrDvlLfpHV3zjBn--72" value="" style="html=1;verticalAlign=bottom;endArrow=block;curved=0;rounded=0;" parent="1" source="ckLyhrDvlLfpHV3zjBn--14" target="ckLyhrDvlLfpHV3zjBn--71" edge="1">
          <mxGeometry width="80" relative="1" as="geometry">
            <mxPoint x="485" y="950" as="sourcePoint" />
            <mxPoint x="730" y="950" as="targetPoint" />
          </mxGeometry>
        </mxCell>
        <mxCell id="ckLyhrDvlLfpHV3zjBn--76" value="printStatisticsIfRequired" style="edgeLabel;html=1;align=center;verticalAlign=middle;resizable=0;points=[];" parent="ckLyhrDvlLfpHV3zjBn--72" vertex="1" connectable="0">
          <mxGeometry x="0.6029" y="1" relative="1" as="geometry">
            <mxPoint x="-187" y="-9" as="offset" />
          </mxGeometry>
        </mxCell>
        <mxCell id="ckLyhrDvlLfpHV3zjBn--74" value="opt" style="shape=umlFrame;whiteSpace=wrap;html=1;pointerEvents=0;" parent="1" vertex="1">
          <mxGeometry x="380" y="970" width="480" height="130" as="geometry" />
        </mxCell>
        <mxCell id="ckLyhrDvlLfpHV3zjBn--75" value="[user chooses to list all spendings]" style="text;html=1;align=center;verticalAlign=middle;resizable=0;points=[];autosize=1;strokeColor=none;fillColor=none;" parent="1" vertex="1">
          <mxGeometry x="460" y="970" width="210" height="30" as="geometry" />
        </mxCell>
        <mxCell id="ckLyhrDvlLfpHV3zjBn--77" value="" style="html=1;verticalAlign=bottom;endArrow=block;curved=0;rounded=0;dashed=1;" parent="1" edge="1">
          <mxGeometry width="80" relative="1" as="geometry">
            <mxPoint x="785" y="1079" as="sourcePoint" />
            <mxPoint x="470" y="1079" as="targetPoint" />
          </mxGeometry>
        </mxCell>
        <mxCell id="ckLyhrDvlLfpHV3zjBn--79" value="ref" style="shape=umlFrame;whiteSpace=wrap;html=1;pointerEvents=0;width=50;height=20;" parent="1" vertex="1">
          <mxGeometry x="690" y="1030" width="130" height="40" as="geometry" />
        </mxCell>
        <mxCell id="ckLyhrDvlLfpHV3zjBn--80" value="printStats" style="text;html=1;align=center;verticalAlign=middle;resizable=0;points=[];autosize=1;strokeColor=none;fillColor=none;" parent="1" vertex="1">
          <mxGeometry x="720" y="1040" width="70" height="30" as="geometry" />
        </mxCell>
        <mxCell id="ckLyhrDvlLfpHV3zjBn--82" value="printWeekly" style="text;html=1;align=center;verticalAlign=middle;resizable=0;points=[];autosize=1;strokeColor=none;fillColor=none;" parent="1" vertex="1">
          <mxGeometry x="798" y="578" width="90" height="30" as="geometry" />
        </mxCell>
        <mxCell id="ckLyhrDvlLfpHV3zjBn--83" value="" style="html=1;verticalAlign=bottom;endArrow=block;curved=0;rounded=0;exitX=0;exitY=1;exitDx=0;exitDy=-5;exitPerimeter=0;dashed=1;" parent="1" source="ckLyhrDvlLfpHV3zjBn--13" target="aM9ryv3xv72pqoxQDRHE-2" edge="1">
          <mxGeometry x="0.3611" width="80" relative="1" as="geometry">
            <mxPoint x="432.5" y="1150" as="sourcePoint" />
            <mxPoint x="97.5" y="1150" as="targetPoint" />
            <mxPoint as="offset" />
          </mxGeometry>
        </mxCell>
      </root>
    </mxGraphModel>
  </diagram>
</mxfile>
